<svg id="Trolley" xmlns="http://www.w3.org/2000/svg" viewBox="0 0 104.3 104.3"><title>Doora</title><rect width="104.3" height="104.29" rx="19.6" style="fill:#dce8a4"/><path d="M127.2,711.6h.1a6.9,6.9,0,0,0-4.9,1.3,7.3,7.3,0,0,0,4.7,3,7.8,7.8,0,0,0,4.3-.6l-2,6c2.4-.8,3.7-3.5,3.7-6.5l.5-.3c-.1.1-.2.2-.2.3a7.2,7.2,0,0,0,5.6.5,7.7,7.7,0,0,0,4.2-3.7,6.8,6.8,0,0,0-5.6-.4,4.4,4.4,0,0,0-1.9,1,4.3,4.3,0,0,1,.1-.5,4.8,4.8,0,0,0,.6-4.2s-1.2-5-.7-7.5,1.7-5.1.9-7.8a10,10,0,0,0-19,6.3c1,2.9,3.9,4.1,6.1,6s3.5,7,3.5,7Zm-2.4-23.1a7.7,7.7,0,0,1,9.6,4.9.6.6,0,0,1-.4.7.6.6,0,0,1-.8-.4,6.4,6.4,0,0,0-8.1-4,.6.6,0,0,1-.7-.4.7.7,0,0,1,.4-.8Z" transform="translate(-74.9 -659.4)" style="fill:#be1e2d;fill-rule:evenodd"/><path d="M136.7,679.5a.9.9,0,0,0-.9.9l-.2,4.1-2.1-4.6a.9.9,0,0,0-1.2-.5,1,1,0,0,0-.4,1.2l2,4.5-5-1.8a.9.9,0,0,0-1.2.5.9.9,0,0,0,.6,1.1l5.2,2a4.8,4.8,0,0,0-1.8,2.4,4.9,4.9,0,0,0,.2,4.1s1.4,2.7,3.5,6.4l3.4-1.8a.9.9,0,0,1,1.2.4.9.9,0,0,1,0,.7.7.7,0,0,1-.4.5l-3.4,1.8c1.5,2.6,3.3,5.7,5,8.8,10.2,17.2,11.5,16.6,12.6,16.1a1.4,1.4,0,0,0,.7-.8h0c.7-2-1.8-10.6-4.7-19.1l-4.1,2.1a.8.8,0,0,1-1.2-.4.9.9,0,0,1,.3-1.2l4.4-2.2c-2.1-6-4.2-11.8-5.4-14.9l-3.9,1.8a.8.8,0,0,1-1.2-.4.9.9,0,0,1,.4-1.2l4-1.9a5.2,5.2,0,0,0-5.7-2.9v-4.8a.8.8,0,0,0-.8-.9Z" transform="translate(-74.9 -659.4)" style="fill:#839735;fill-rule:evenodd"/><path d="M107.8,702.2H84a1.8,1.8,0,0,0-1.8,2,2,2,0,0,0,2,1.9H108a1.8,1.8,0,0,0,1.8-1.9,2.1,2.1,0,0,0-2-2Zm.4,7.9H88.4a1.9,1.9,0,0,0-1.9,2,2.1,2.1,0,0,0,2.1,1.9h19.8a1.7,1.7,0,0,0,1.8-1.9,2,2,0,0,0-2-2Zm.4,7.9H92.8a1.9,1.9,0,0,0-1.9,2,2.1,2.1,0,0,0,2.1,1.9h15.8a1.8,1.8,0,0,0,1.9-1.9,2.2,2.2,0,0,0-2.1-2Zm.4,7.9H89.2a1.8,1.8,0,0,0-1.8,2,2.1,2.1,0,0,0,2,2h19.8a1.9,1.9,0,0,0,1.9-2,2.2,2.2,0,0,0-2.1-2Z" transform="translate(-74.9 -659.4)" style="fill:#f36f48"/><polygon points="85.8 65.3 68.2 65.3 65.5 56.5 88.4 56.5 85.8 65.3" style="fill:#ee5382"/><path d="M166.8,692.4a4.8,4.8,0,0,0,1.3-3.2,4.7,4.7,0,0,0-9.1-1.8,5.9,5.9,0,0,0-11.4,2.2v.6a7.1,7.1,0,1,0,1.1,9.3,16.8,16.8,0,0,0,5.2.7c3.6,0,6.7-.9,8.5-2.3a3.4,3.4,0,0,0,2.2.7,3.5,3.5,0,0,0,3.5-3.5A3.4,3.4,0,0,0,166.8,692.4Z" transform="translate(-74.9 -659.4)" style="fill:#8ac640"/><path d="M151.9,700.1s1.2,11.9-5.9,15.8h9.5l7.1-9.4-7.9,4.7a28.4,28.4,0,0,0,.7-11Z" transform="translate(-74.9 -659.4)" style="fill:#8c6b37"/><path d="M163.9,704.1h-.7a2.8,2.8,0,0,0-2.5-1.6,2.8,2.8,0,0,0,0,5.5h.6a2.9,2.9,0,0,0,2.6,1.7,2.8,2.8,0,0,0,2.7-2.8A2.7,2.7,0,0,0,163.9,704.1Z" transform="translate(-74.9 -659.4)" style="fill:#8ac640"/><path d="M168.5,698.4a1.8,1.8,0,0,0-1-.4H117.4l-.7-11.3a1.2,1.2,0,0,0-1.2-1.2H108a1.3,1.3,0,0,0-1.2,1.3,1.3,1.3,0,0,0,1.2,1.2h6.3l2.4,41a1.3,1.3,0,0,0,1.3,1.1h44.6a1.2,1.2,0,0,0,1.2-1l4.9-29.8a1.2,1.2,0,0,0-.2-1Zm-43.1,36.8a6.2,6.2,0,1,0,6.2,6.2,6.2,6.2,0,0,0-6.2-6.2Zm27.3,0a6.2,6.2,0,0,0,0,12.4,6.2,6.2,0,1,0,0-12.4Z" transform="translate(-74.9 -659.4)" style="fill:#f36f48"/><path d="M155.5,708.1l-15.7,15.3a2.6,2.6,0,0,1-3.5,0l-9.5-9.3a2.3,2.3,0,0,1,0-3.4,2.4,2.4,0,0,1,3.5,0l7.7,7.6,14-13.6a2.4,2.4,0,0,1,3.5,0A2.3,2.3,0,0,1,155.5,708.1Z" transform="translate(-74.9 -659.4)" style="fill:#fff"/><path d="M155.5,708.1l-15.7,15.3a2.6,2.6,0,0,1-3.5,0l-9.5-9.3a2.3,2.3,0,0,1,0-3.4,2.4,2.4,0,0,1,3.5,0l7.7,7.6,14-13.6a2.4,2.4,0,0,1,3.5,0A2.3,2.3,0,0,1,155.5,708.1Z" transform="translate(-74.9 -659.4)" style="fill:#dce8a4;fill-rule:evenodd"/></svg>