<svg xmlns="http://www.w3.org/2000/svg" viewBox="0 0 452.8 99.3"><title>Doorakart</title><g id="Layer_3" data-name="Layer 3"><rect width="452.8" height="99.33" rx="15" style="fill:#f1592b"/><path d="M142.5,418.1a23.9,23.9,0,0,1-6,16.2c-3.6,4.1-8.5,6.2-14.9,6.4H102.1c-.6,0-.9-.2-.9-.7q0-3.4.3-10.5c.1-4.7.2-8.2.2-10.5s-.1-6.1-.2-10.9-.3-8.5-.3-10.9c0-.5.3-.7.9-.8a63.7,63.7,0,0,1,7.4-.3c6.5,0,10.7.1,12.7.3,5,.5,8.9,1.8,11.7,3.8a19.8,19.8,0,0,1,6.4,8A25.4,25.4,0,0,1,142.5,418.1Zm-12.2,0c0-3.6-1-6.5-3.2-8.7a10.9,10.9,0,0,0-8.6-3.6c-3.2,0-4.8.5-4.8,1.3s-.1,3.2-.1,5.7-.1,4.4-.1,5.6.1,3.1.1,5.5.1,4.4.1,5.6,1.7,1.4,5,1.4a10.7,10.7,0,0,0,8.7-3.7A13.8,13.8,0,0,0,130.3,418.1Z" transform="translate(-79.9 -369.7)" style="fill:#dce8a4"/><path d="M177.7,425a16.2,16.2,0,0,1-4.4,11.7,16.1,16.1,0,0,1-27.7-11.3,16.9,16.9,0,0,1,4.4-12c2.8-3,6.7-4.5,11.6-4.5s8.7,1.4,11.7,4.4A16.2,16.2,0,0,1,177.7,425Zm-10.4,0a6.5,6.5,0,0,0-1.6-4.4,4.7,4.7,0,0,0-4-1.9,5,5,0,0,0-4.1,1.9,6.9,6.9,0,0,0-1.5,4.4,6.7,6.7,0,0,0,1.5,4.4,5.2,5.2,0,0,0,8.2,0A6.7,6.7,0,0,0,167.3,425Z" transform="translate(-79.9 -369.7)" style="fill:#dce8a4"/><path d="M212.1,425a15.8,15.8,0,0,1-4.5,11.7c-2.9,3.1-6.8,4.6-11.6,4.6a15.7,15.7,0,0,1-11.5-4.5,15.4,15.4,0,0,1-4.5-11.4,17.3,17.3,0,0,1,4.3-12q4.3-4.5,11.7-4.5c4.8,0,8.7,1.4,11.6,4.4A15.8,15.8,0,0,1,212.1,425Zm-10.4,0a7,7,0,0,0-1.6-4.4,4.8,4.8,0,0,0-4-1.9,4.9,4.9,0,0,0-4.1,1.9,6.5,6.5,0,0,0-1.6,4.4,6.3,6.3,0,0,0,1.6,4.4,5,5,0,0,0,4.1,2,5.3,5.3,0,0,0,4.1-2A6.7,6.7,0,0,0,201.7,425Z" transform="translate(-79.9 -369.7)" style="fill:#dce8a4"/><path d="M237,420.8c0,.9-.5,1.3-1.4,1.3h-3.5a5.4,5.4,0,0,0-3.6.9q-.9.8-.9,3.3v4.1c0,1.9.1,3.3.1,4.2s0,1.5.1,2.7.1,2.1.1,2.7-.3.8-1,.9h-4.7l-4.8-.2c-.7-.1-1.1-.4-1.1-1s0-4.3.1-7.6v-7.6a46.3,46.3,0,0,0-1.4-12.3v-.5a.5.5,0,0,1,.4-.6l5.2-.7,5.1-1c.4,0,.6.7.8,2s.2,2,.5,2,.6-.6,2.6-1.7a12.5,12.5,0,0,1,5.9-1.6c1.2,0,1.8.2,1.8.7s-.1,1.5-.2,2.6-.2,2.1-.2,2.6v2.5C236.9,419.6,237,420.4,237,420.8Z" transform="translate(-79.9 -369.7)" style="fill:#dce8a4"/><path d="M272.6,424.8q0,2.4.3,7.2c.1,3.2.2,5.6.2,7.3s-.3,1.3-1.1,1.3q-3.9.3-9,.3c-.4,0-.7-.6-.8-1.8s-.3-1.9-.5-1.9l-.7.6a10.4,10.4,0,0,1-7.6,3.5,12.8,12.8,0,0,1-10.2-4.8,16.5,16.5,0,0,1-3.9-11,17.5,17.5,0,0,1,4-11.8c2.8-3.1,6.5-4.6,11.3-4.6a10,10,0,0,1,7.9,3.5l.2.2c.2,0,.4-.6.6-1.6s.6-1.5.9-1.5a30.7,30.7,0,0,1,4.5.6l4.5,1.1c.3.1.5.3.5.5a3.5,3.5,0,0,0-.1.7A67.7,67.7,0,0,0,272.6,424.8Zm-10.3.1a5.8,5.8,0,0,0-6.1-6.2,5.7,5.7,0,0,0-4.4,1.8,6,6,0,0,0-1.7,4.4,6.3,6.3,0,0,0,1.8,4.5,5.8,5.8,0,0,0,4.3,1.8,6,6,0,0,0,6.1-6.3Z" transform="translate(-79.9 -369.7)" style="fill:#dce8a4"/><path d="M318.2,438.8a1.7,1.7,0,0,1-1.2,1.8,23.3,23.3,0,0,1-5,.3,38.5,38.5,0,0,1-5.7-.3l-1.2-.3a2.6,2.6,0,0,1-.6-.9l-4.6-8.5c-2.6-4.6-4.1-7.1-4.5-7.6-2.3.8-3.5,1.4-3.5,1.8s.1,4,.2,7.2.2,5.6.2,7.2-.3,1-.8,1.1a39.5,39.5,0,0,1-6,.3,31.2,31.2,0,0,1-5.5-.3.9.9,0,0,1-.9-1c0-2.2.1-5.7.3-10.3s.4-8.1.4-10.4-.1-6.1-.3-11-.4-8.7-.4-11.1a.6.6,0,0,1,.7-.7h11.9a.5.5,0,0,1,.6.6c0,1.5-.1,3.9-.3,7.1s-.2,5.5-.2,7,.5,2.8,1.5,2.8a8,8,0,0,0,5.9-2.1,18.6,18.6,0,0,0,3.1-5.5c.7-2.1,1.8-5.1,3.3-9.1a1.5,1.5,0,0,1,1.5-.8h10c.5,0,.8.2.8.7a29.9,29.9,0,0,1-1.3,5.1c-2.7,8-5.7,13-9.1,15-.7.4-1,.7-1,1s1.9,3.1,5.8,9.5S318.2,437.6,318.2,438.8Z" transform="translate(-79.9 -369.7)" style="fill:#dce8a4"/><path d="M353.5,424.8q0,2.4.3,7.2c.2,3.2.3,5.6.3,7.3s-.4,1.3-1.1,1.3c-2.7.2-5.7.3-9.1.3-.4,0-.6-.6-.8-1.8s-.3-1.9-.5-1.9l-.6.6a10.5,10.5,0,0,1-7.6,3.5,12.8,12.8,0,0,1-10.3-4.8,16.4,16.4,0,0,1-3.8-11c0-4.8,1.3-8.8,3.9-11.8s6.6-4.6,11.3-4.6a9.7,9.7,0,0,1,7.9,3.5l.2.2c.2,0,.4-.6.7-1.6s.5-1.5.9-1.5a31.7,31.7,0,0,1,4.4.6l4.5,1.1c.4.1.5.3.5.5a2.6,2.6,0,0,1-.1.7A67.7,67.7,0,0,0,353.5,424.8Zm-10.2.1a6.2,6.2,0,0,0-1.7-4.4,5.9,5.9,0,0,0-4.4-1.8,5.8,5.8,0,0,0-6.1,6.2,6.6,6.6,0,0,0,1.7,4.5,6,6,0,0,0,4.4,1.8,5.9,5.9,0,0,0,4.4-1.8A6.1,6.1,0,0,0,343.3,424.9Z" transform="translate(-79.9 -369.7)" style="fill:#dce8a4"/><path d="M380.9,420.8c0,.9-.5,1.3-1.4,1.3H376q-2.7,0-3.6.9t-.9,3.3v4.1c0,1.9.1,3.3.1,4.2s0,1.5.1,2.7.1,2.1.1,2.7-.3.8-1,.9h-4.7l-4.8-.2c-.7-.1-1.1-.4-1.1-1s0-4.3.1-7.6v-7.6a46.3,46.3,0,0,0-1.4-12.3v-.5a.5.5,0,0,1,.4-.6l5.1-.7,5.2-1c.4,0,.6.7.8,2s.2,2,.5,2,.6-.6,2.6-1.7a12.5,12.5,0,0,1,5.9-1.6c1.2,0,1.8.2,1.8.7s-.1,1.5-.2,2.6-.2,2.1-.2,2.6v2.5C380.8,419.6,380.9,420.4,380.9,420.8Z" transform="translate(-79.9 -369.7)" style="fill:#dce8a4"/><path d="M405.8,431.3c0,.7-.1,1.6-.2,2.9a20.5,20.5,0,0,0-.3,2.8c0,.7,0,1-.2,1.2s-.4.4-1,.7a18.6,18.6,0,0,1-9.1,2.3c-6.1,0-9.2-2.3-9.2-7,0-1.4.1-3.5.2-6.3s.2-4.9.2-6.3-.6-1.4-1.7-1.4h-.8c-.8,0-1.2-.3-1.2-.8a10.4,10.4,0,0,1,.1-1.6c0-.7.1-1.2.1-1.6s-.1-1.1-.1-2a17.2,17.2,0,0,1-.1-2c0-.4.7-.7,2-.7s1.2-.2,1.3-.7a36.7,36.7,0,0,0,.1-3.8c-.1-2.7-.1-4-.1-3.9,0-2.4.2-3.6.7-3.6l2.4.3,2.5.5,4.9.6c.5.1.8.2.8.6s-.1,2.1-.2,3.8-.2,3-.2,3.9.3,1.5.9,1.5h6.8c.4,0,.7.2.7.5s-.1,1.2-.2,2.2a20.3,20.3,0,0,0-.1,2.2v4.4c0,.5-.3.7-.9.7h-6.6c-.4,0-.5.5-.5,1.4v4.5a8,8,0,0,0,.6,3.7c.6.9,1.7,1.4,3.4,1.4l2.3-.4a6.8,6.8,0,0,1,2-.4A.6.6,0,0,1,405.8,431.3Z" transform="translate(-79.9 -369.7)" style="fill:#dce8a4"/><path d="M465.4,420.6h.2a7.7,7.7,0,0,0-5.2,1.4,7.2,7.2,0,0,0,4.9,3.1,6.9,6.9,0,0,0,4.5-.6l-2.1,6.3c2.5-.8,4-3.6,3.9-6.8l.5-.3c0,.1-.1.2-.1.4a7.7,7.7,0,0,0,5.8.4,7.9,7.9,0,0,0,4.4-3.8,7.3,7.3,0,0,0-5.8-.5,10.2,10.2,0,0,0-2.1,1c.1-.1.1-.3.2-.4a5.2,5.2,0,0,0,.6-4.4s-1.2-5.2-.7-7.9,1.8-5.4.9-8.2a10.4,10.4,0,0,0-13.2-6.3,10.3,10.3,0,0,0-6.7,12.9c1,3.1,4.1,4.3,6.4,6.4s3.6,7.2,3.6,7.2Zm-2.5-24.1a8,8,0,0,1,10.1,5.1.6.6,0,0,1-.4.7.5.5,0,0,1-.8-.4,6.7,6.7,0,0,0-8.5-4.2.6.6,0,1,1-.4-1.2Z" transform="translate(-79.9 -369.7)" style="fill:#be1e2d;fill-rule:evenodd"/><path d="M475.4,387a1.1,1.1,0,0,0-1,.9v4.4l-2.2-4.9a1.1,1.1,0,0,0-1.3-.4.8.8,0,0,0-.4,1.2l2.1,4.7-5.3-1.9a.9.9,0,0,0-1.2.5.9.9,0,0,0,.6,1.2l5.4,2a6,6,0,0,0-1.7,6.9c.1,0,1.5,2.8,3.7,6.7l3.6-1.9a1,1,0,0,1,1.3.4.9.9,0,0,1,0,.7.7.7,0,0,1-.4.5l-3.6,2c1.6,2.7,3.4,6,5.3,9.1,10.6,18.1,12,17.5,13.1,17a1.4,1.4,0,0,0,.7-.9h0c.8-2-1.9-11-4.9-20l-4.3,2.2a.9.9,0,1,1-.8-1.6l4.5-2.4c-2.2-6.3-4.4-12.3-5.7-15.6l-4.1,1.9a.8.8,0,0,1-1.2-.4.9.9,0,0,1,.4-1.2l4.2-2.1a5.4,5.4,0,0,0-6-3l.2-5a1.1,1.1,0,0,0-.9-1Z" transform="translate(-79.9 -369.7)" style="fill:#839735;fill-rule:evenodd"/><path d="M445.1,410.8H420.2a1.9,1.9,0,0,0-1.9,2.1,2.1,2.1,0,0,0,2.2,2h24.8a1.9,1.9,0,0,0,2-2,2.3,2.3,0,0,0-2.2-2.1Zm.4,8.3H424.8a1.9,1.9,0,0,0-1.9,2.1,2.1,2.1,0,0,0,2.1,2h20.7a1.9,1.9,0,0,0,2-2,2.2,2.2,0,0,0-2.2-2.1Zm.5,8.3H429.4a2,2,0,0,0-2,2,2.3,2.3,0,0,0,2.2,2.1h16.6a1.9,1.9,0,0,0,1.9-2.1,2.1,2.1,0,0,0-2.1-2Zm.4,8.2H425.7a2,2,0,0,0-2,2.1,2.3,2.3,0,0,0,2.2,2.1h20.7a2,2,0,0,0,2-2.1,2.4,2.4,0,0,0-2.2-2.1Z" transform="translate(-79.9 -369.7)" style="fill:#dce8a4"/><polygon points="420.7 64.7 402.3 64.7 399.5 55.5 423.5 55.5 420.7 64.7" style="fill:#ee5382"/><path d="M507,400.5a4.9,4.9,0,0,0,1.3-3.3,4.9,4.9,0,0,0-9.5-1.9,6.2,6.2,0,0,0-5.8-3.9,6.2,6.2,0,0,0-6.2,6.2,2,2,0,0,0,.1.7,7.7,7.7,0,0,0-5-2,7.5,7.5,0,0,0-7.5,7.5,7.4,7.4,0,0,0,7.5,7.4A7.6,7.6,0,0,0,488,408a18.1,18.1,0,0,0,5.4.7c3.8,0,7.1-.9,9-2.4a3.5,3.5,0,0,0,2.2.8,3.7,3.7,0,0,0,3.7-3.7A3.8,3.8,0,0,0,507,400.5Z" transform="translate(-79.9 -369.7)" style="fill:#8ac640"/><path d="M491.4,408.6s1.2,12.4-6.2,16.5h9.9l7.4-9.8-8.2,4.9a29.6,29.6,0,0,0,.8-11.5Z" transform="translate(-79.9 -369.7)" style="fill:#8c6b37"/><path d="M503.9,412.8h-.7a2.8,2.8,0,0,0-2.6-1.7,2.9,2.9,0,0,0,0,5.8h.6a3,3,0,0,0,2.7,1.7,2.8,2.8,0,0,0,2.9-2.8A2.9,2.9,0,0,0,503.9,412.8Z" transform="translate(-79.9 -369.7)" style="fill:#8ac640"/><path d="M508.7,406.9a1.2,1.2,0,0,0-1-.5H455.8l-.6.2-.7-11.9a1.4,1.4,0,0,0-1.3-1.3h-7.8a1.3,1.3,0,0,0-1.3,1.3,1.3,1.3,0,0,0,1.3,1.3H452l2.5,43a1.3,1.3,0,0,0,1.3,1.2h46.7a1.3,1.3,0,0,0,1.3-1.1l5.2-31.2a1,1,0,0,0-.3-1Zm-45.1,38.5a6.5,6.5,0,1,0,6.5,6.5,6.5,6.5,0,0,0-6.5-6.5Zm28.5,0a6.5,6.5,0,1,0,0,12.9,6.5,6.5,0,1,0,0-12.9Z" transform="translate(-79.9 -369.7)" style="fill:#dce8a4"/><path d="M494.4,417.8l-15.7,15.3a2.6,2.6,0,0,1-3.5,0l-9.5-9.3a2.5,2.5,0,0,1,0-3.4,2.4,2.4,0,0,1,3.5,0L477,428l13.9-13.6a2.4,2.4,0,0,1,3.5,0A2.3,2.3,0,0,1,494.4,417.8Z" transform="translate(-79.9 -369.7)" style="fill:#fff"/><path d="M494.4,417.8l-15.7,15.3a2.6,2.6,0,0,1-3.5,0l-9.5-9.3a2.5,2.5,0,0,1,0-3.4,2.4,2.4,0,0,1,3.5,0L477,428l13.9-13.6a2.4,2.4,0,0,1,3.5,0A2.3,2.3,0,0,1,494.4,417.8Z" transform="translate(-79.9 -369.7)" style="fill:#f36f47;fill-rule:evenodd"/></g></svg>